<svg width="88" height="25" viewBox="0 0 88 25" fill="none" xmlns="http://www.w3.org/2000/svg">
<path d="M0.0227273 24V0.727272H4.94318V19.9432H14.9205V24H0.0227273ZM38.4545 12.3636C38.4545 14.9015 37.9735 17.0606 37.0114 18.8409C36.0568 20.6212 34.7538 21.9811 33.1023 22.9205C31.4583 23.8523 29.6098 24.3182 27.5568 24.3182C25.4886 24.3182 23.6326 23.8485 21.9886 22.9091C20.3447 21.9697 19.0455 20.6098 18.0909 18.8295C17.1364 17.0492 16.6591 14.8939 16.6591 12.3636C16.6591 9.82576 17.1364 7.66667 18.0909 5.88636C19.0455 4.10606 20.3447 2.75 21.9886 1.81818C23.6326 0.878787 25.4886 0.40909 27.5568 0.40909C29.6098 0.40909 31.4583 0.878787 33.1023 1.81818C34.7538 2.75 36.0568 4.10606 37.0114 5.88636C37.9735 7.66667 38.4545 9.82576 38.4545 12.3636ZM33.4659 12.3636C33.4659 10.7197 33.2197 9.33333 32.7273 8.20455C32.2424 7.07576 31.5568 6.2197 30.6705 5.63636C29.7841 5.05303 28.7462 4.76136 27.5568 4.76136C26.3674 4.76136 25.3295 5.05303 24.4432 5.63636C23.5568 6.2197 22.8674 7.07576 22.375 8.20455C21.8902 9.33333 21.6477 10.7197 21.6477 12.3636C21.6477 14.0076 21.8902 15.3939 22.375 16.5227C22.8674 17.6515 23.5568 18.5076 24.4432 19.0909C25.3295 19.6742 26.3674 19.9659 27.5568 19.9659C28.7462 19.9659 29.7841 19.6742 30.6705 19.0909C31.5568 18.5076 32.2424 17.6515 32.7273 16.5227C33.2197 15.3939 33.4659 14.0076 33.4659 12.3636ZM57.3267 8.25C57.1676 7.69697 56.9441 7.20833 56.6562 6.78409C56.3684 6.35227 56.0161 5.98864 55.5994 5.69318C55.1903 5.39015 54.7206 5.15909 54.1903 5C53.6676 4.84091 53.0881 4.76136 52.4517 4.76136C51.2623 4.76136 50.2169 5.05682 49.3153 5.64773C48.4214 6.23864 47.7244 7.09848 47.2244 8.22727C46.7244 9.34848 46.4744 10.7197 46.4744 12.3409C46.4744 13.9621 46.7206 15.3409 47.2131 16.4773C47.7055 17.6136 48.4025 18.4811 49.304 19.0795C50.2055 19.6705 51.2699 19.9659 52.4972 19.9659C53.6108 19.9659 54.5616 19.7689 55.3494 19.375C56.1449 18.9735 56.7509 18.4091 57.1676 17.6818C57.5919 16.9545 57.804 16.0947 57.804 15.1023L58.804 15.25H52.804V11.5455H62.5426V14.4773C62.5426 16.5227 62.1108 18.2803 61.2472 19.75C60.3835 21.2121 59.1941 22.3409 57.679 23.1364C56.1638 23.9242 54.429 24.3182 52.4744 24.3182C50.2926 24.3182 48.3759 23.8371 46.7244 22.875C45.0729 21.9053 43.785 20.5303 42.8608 18.75C41.9441 16.9621 41.4858 14.8409 41.4858 12.3864C41.4858 10.5 41.7585 8.81818 42.304 7.34091C42.857 5.85606 43.6297 4.59848 44.6222 3.56818C45.6146 2.53788 46.7699 1.75379 48.0881 1.21591C49.4062 0.678029 50.8343 0.40909 52.3722 0.40909C53.6903 0.40909 54.9176 0.602272 56.054 0.988636C57.1903 1.36742 58.1979 1.9053 59.0767 2.60227C59.9631 3.29924 60.6866 4.12879 61.2472 5.09091C61.8078 6.04545 62.1676 7.09848 62.3267 8.25H57.3267ZM87.4205 12.3636C87.4205 14.9015 86.9394 17.0606 85.9773 18.8409C85.0227 20.6212 83.7197 21.9811 82.0682 22.9205C80.4242 23.8523 78.5758 24.3182 76.5227 24.3182C74.4545 24.3182 72.5985 23.8485 70.9545 22.9091C69.3106 21.9697 68.0114 20.6098 67.0568 18.8295C66.1023 17.0492 65.625 14.8939 65.625 12.3636C65.625 9.82576 66.1023 7.66667 67.0568 5.88636C68.0114 4.10606 69.3106 2.75 70.9545 1.81818C72.5985 0.878787 74.4545 0.40909 76.5227 0.40909C78.5758 0.40909 80.4242 0.878787 82.0682 1.81818C83.7197 2.75 85.0227 4.10606 85.9773 5.88636C86.9394 7.66667 87.4205 9.82576 87.4205 12.3636ZM82.4318 12.3636C82.4318 10.7197 82.1856 9.33333 81.6932 8.20455C81.2083 7.07576 80.5227 6.2197 79.6364 5.63636C78.75 5.05303 77.7121 4.76136 76.5227 4.76136C75.3333 4.76136 74.2955 5.05303 73.4091 5.63636C72.5227 6.2197 71.8333 7.07576 71.3409 8.20455C70.8561 9.33333 70.6136 10.7197 70.6136 12.3636C70.6136 14.0076 70.8561 15.3939 71.3409 16.5227C71.8333 17.6515 72.5227 18.5076 73.4091 19.0909C74.2955 19.6742 75.3333 19.9659 76.5227 19.9659C77.7121 19.9659 78.75 19.6742 79.6364 19.0909C80.5227 18.5076 81.2083 17.6515 81.6932 16.5227C82.1856 15.3939 82.4318 14.0076 82.4318 12.3636Z" fill="white"/>
</svg>
