<svg width="20" height="19" viewBox="0 0 20 19" fill="none" xmlns="http://www.w3.org/2000/svg">
<path d="M1.5 16.9989H18.5C19.05 16.9989 19.5 17.4489 19.5 17.9989C19.5 18.5489 19.05 18.9989 18.5 18.9989H1.5C0.950001 18.9989 0.5 18.5489 0.5 17.9989C0.5 17.4489 0.950001 16.9989 1.5 16.9989ZM18.49 9.60889L2.66 13.8489C1.86 14.0589 1.04 13.5889 0.82 12.7889C0.610001 11.9889 1.08 11.1689 1.88 10.9489L7.19 9.52889L9.77 1.07889C9.88 0.718888 10.16 0.448888 10.52 0.348888C11.2 0.168888 11.87 0.678888 11.87 1.38889V8.26889L16.85 6.94889L17.6 5.08889C17.72 4.79889 17.96 4.57889 18.27 4.49889L18.6 4.40889C18.92 4.31889 19.23 4.55889 19.23 4.88889V8.63889C19.23 9.09889 18.93 9.48889 18.49 9.60889Z" fill="#515D6B"/>
</svg>
