<svg width="21" height="18" viewBox="0 0 21 18" fill="none" xmlns="http://www.w3.org/2000/svg">
<path d="M2.49978 16.0013H19.4998C20.0498 16.0013 20.4998 16.4513 20.4998 17.0013C20.4998 17.5513 20.0498 18.0013 19.4998 18.0013H2.49978C1.94978 18.0013 1.49978 17.5513 1.49978 17.0013C1.49978 16.4513 1.94978 16.0013 2.49978 16.0013ZM0.929779 6.64125C1.14978 5.84125 1.96978 5.37125 2.76978 5.58125L8.07978 7.00125L14.5398 0.981252C14.8098 0.721252 15.1998 0.631252 15.5598 0.731252C16.2398 0.921252 16.5598 1.70125 16.2098 2.31125L12.7698 8.27125L17.7398 9.60125L19.3098 8.36125C19.5598 8.17125 19.8798 8.10125 20.1898 8.18125L20.5198 8.27125C20.8398 8.35125 20.9898 8.72125 20.8198 9.00125L18.9398 12.2513C18.7098 12.6413 18.2498 12.8313 17.8198 12.7213L1.99978 8.48125C1.19978 8.26125 0.71978 7.44125 0.929779 6.64125Z" fill="#515D6B"/>
</svg>
